<svg viewBox="0 0 512 512" xmlns="http://www.w3.org/2000/svg" style="background:#f8f8f2"><g fill="none" fill-rule="evenodd"><path d="M144.79 96.715L255.603 85l110.812 11.715 85.79 115.166-196.602 228.942L59 211.881l85.79-115.166z" fill="#FDB300"/><path fill="#EA6C00" d="M138.634 211.881l116.969 228.942L59 211.881z"/><path fill="#EA6C00" d="M372.571 211.881L255.602 440.823l196.603-228.942z"/><path fill="#FDAD00" d="M138.634 211.881h233.938L255.603 440.823z"/><g><path fill="#FDD231" d="M255.603 85L144.79 96.715l-6.156 115.166z"/><path fill="#FDD231" d="M255.602 85l110.813 11.715 6.156 115.166z"/><path fill="#FDAD00" d="M452.206 211.881L366.415 96.715l6.157 115.166zM59 211.881l85.79-115.166-6.156 115.166z"/><path fill="#FEEEB7" d="M255.603 85L138.634 211.881h233.938z"/></g></g></svg>